<svg width="44" height="44" viewBox="0 0 44 44" fill="none" xmlns="http://www.w3.org/2000/svg">
<path d="M36.4687 5.40277H7.65393C5.66751 5.40277 4.05208 7.0182 4.05208 9.00462V34.2176C4.05208 36.204 5.66751 37.8194 7.65393 37.8194H36.4687C38.4552 37.8194 40.0706 36.204 40.0706 34.2176V9.00462C40.0706 7.0182 38.4552 5.40277 36.4687 5.40277ZM7.65393 34.2176V12.6065H36.4687L36.4723 34.2176H7.65393Z" fill="#CB5D0E" stroke="#CB5D0E"/>
<path d="M17.4816 16.736L10.8056 23.4121L17.4816 30.0881L20.0281 27.5416L15.8986 23.4121L20.0281 19.2825L17.4816 16.736ZM27.2318 16.736L24.6853 19.2825L28.8148 23.4121L24.6853 27.5416L27.2318 30.0881L33.9078 23.4121L27.2318 16.736Z" fill="#CB5D0E" stroke="#CB5D0E"/>
</svg>
