<svg width="33" height="33" viewBox="0 0 33 33" fill="none" xmlns="http://www.w3.org/2000/svg">
<path d="M31.8125 2.5625L25.3125 1.0625C24.625 0.875 23.875 1.25 23.5625 1.9375L20.5625 8.9375C20.3125 9.5625 20.5 10.25 21 10.6875L24.8125 13.8125C22.5625 18.5625 18.625 22.5625 13.75 24.875L10.625 21.0625C10.1875 20.5625 9.5 20.375 8.875 20.625L1.875 23.625C1.1875 23.9375 0.875 24.6875 1 25.375L2.5 31.875C2.6875 32.5625 3.25 33 4 33C20 33 33 20.0625 33 4C33 3.3125 32.5 2.75 31.8125 2.5625Z" fill="#CB5D0E"/>
</svg>
