<svg width="44" height="44" viewBox="0 0 44 44" fill="none" xmlns="http://www.w3.org/2000/svg">
<path d="M35.937 24.1043C37.7743 21.463 39.5926 18.8475 41.4476 16.1751C38.8401 15.8239 36.3011 15.4834 33.7228 15.1323C34.8916 11.7731 36.0393 8.47137 37.2235 5.06472C33.6788 7.08821 30.2384 9.05334 26.7635 11.0341C25.8749 8.08362 24.9844 5.15951 24.0803 2.15694C22.5137 4.94974 21.0039 7.65393 19.4738 10.3791C16.5761 7.60658 13.7306 4.87661 10.7801 2.05682C11.4507 5.95065 12.1058 9.71858 12.7554 13.5495C8.97729 12.9472 5.29324 12.376 1.49884 11.7832C4.23956 14.98 6.91737 18.1038 9.61134 21.2533C7.21093 23.4593 4.82625 25.6499 2.3901 27.9034C5.53954 28.6058 8.57399 29.2921 11.6868 29.9944C10.5493 32.5254 9.43345 35.0096 8.28567 37.5622C10.3239 37.0221 10.5785 36.9592 12.5226 36.4348C12.5226 36.4348 14.4433 30.5513 15.3471 29.1519C15.7601 28.5254 15.7997 27.9522 15.6629 27.2456C15.0899 24.3136 14.5673 21.3744 14.0208 18.4416C13.9873 18.2754 13.9804 18.155 14.1534 18.0422C16.214 16.608 17.2767 16.2166 20.4953 13.9361C21.9816 15.629 23.4576 17.3287 24.9638 19.062C24.4505 19.5282 23.9395 19.997 23.4309 20.4683C23.3914 20.5079 23.2916 20.5276 23.2312 20.5079C22.6709 20.3409 22.1115 20.1748 21.5479 19.995C20.8855 19.3683 20.3723 18.6807 19.8456 18.1489C19.6993 18.6954 19.5486 19.2082 19.4257 19.735C20.1977 20.6756 20.3913 20.954 20.8783 21.434C20.9782 21.5346 21.0383 21.6939 21.0383 21.8273C21.1714 24.5439 21.0907 27.2109 21.2217 29.5453C21.5116 29.6254 21.775 29.6917 22.0979 29.7855C22.0315 26.8525 21.9816 23.9667 21.905 21.0611C22.0815 21.0611 22.2484 21.1481 22.3878 21.3943C24.0798 24.1705 25.5961 26.8978 27.1101 29.4256C27.3631 29.2785 27.6135 29.1321 27.87 28.985C27.74 29.378 27.3034 29.9221 27.0696 30.2588C26.2628 31.5244 24.9132 32.1517 23.8044 32.9111C22.4617 35.039 21.377 37.2145 20.5167 38.7254L21.7877 41.9432C21.8194 41.9533 24.0384 38.5785 25.1313 36.8651C26.9523 38.4736 28.7396 40.0565 30.5789 41.6806C30.7121 38.1536 30.8535 34.7368 30.9821 31.2781C34.8239 31.6084 38.6102 31.9332 42.5012 32.2689C40.2659 29.4808 38.1038 26.803 35.937 24.1043ZM21.8052 14.0427C22.9179 13.3499 24.0041 12.683 25.1143 12.0038C25.6633 12.9497 26.1867 13.8827 26.7167 14.8293C25.8036 15.3956 24.8974 15.9627 23.9575 16.5351C23.2544 15.7089 22.5315 14.8896 21.8052 14.0427ZM26.2038 19.1153C25.6633 18.482 25.1237 17.8682 24.5541 17.209C25.5041 16.6289 26.45 16.0428 27.4164 15.449C27.9097 16.3157 28.3933 17.1617 28.883 18.0282C27.4362 18.9284 26.0067 19.8011 24.6004 20.6678C24.5909 20.6479 24.5806 20.6411 24.5609 20.6274C25.1038 20.1342 25.6436 19.6412 26.2038 19.1153ZM23.9576 22.1008C25.7236 21.0146 27.4664 19.9483 29.2359 18.8554C29.7625 19.7617 30.2625 20.648 30.7926 21.581C29.0292 22.674 27.2796 23.7403 25.504 24.8332C24.9868 23.9072 24.4741 23.007 23.9576 22.1008ZM27.4362 28.2052C26.943 27.3325 26.45 26.4796 25.9603 25.5991C27.6135 24.5863 29.2556 23.5733 30.9226 22.5475C31.4123 23.4132 31.9056 24.273 32.3952 25.1467C30.7357 26.1792 29.0895 27.1862 27.4362 28.2052Z" fill="#CB5D0E" stroke="#CB5D0E"/>
</svg>
