<svg width="37" height="33" viewBox="0 0 37 33" fill="none" xmlns="http://www.w3.org/2000/svg">
<path d="M5.40278 8.2037H6.40278V7.2037V3.60185C6.40278 2.16772 7.57049 1 9.00463 1H32.4167C33.8508 1 35.0185 2.16772 35.0185 3.60185V25.213C35.0185 26.6471 33.8508 27.8148 32.4167 27.8148H18.0093H17.0093V28.8148C17.0093 30.2489 15.8415 31.4167 14.4074 31.4167H3.60185C2.16772 31.4167 1 30.2489 1 28.8148V10.8056C1 9.37142 2.16772 8.2037 3.60185 8.2037H5.40278ZM15.4074 10.8059L15.4077 9.80555H14.4074H7.2037H3.60185H2.60185V10.8056V27.0139V28.0139H3.60185H14.402H15.4017L15.402 27.0142L15.4074 10.8059ZM17.0093 25.213V26.213H18.0093H28.8148H29.8148V25.213V3.60185V2.60185H28.8148H9.00463H8.00463V3.60185V7.2037V8.2037H9.00463H14.4074C15.8415 8.2037 17.0093 9.37142 17.0093 10.8056V25.213Z" fill="#CB5D0E" stroke="#CB5D0E" stroke-width="2"/>
</svg>
